# Blender 3.4.1
# www.blender.org
mtllib SmoothRamp.mtl
o Cube
v 2.500000 -2.476622 -2.083333
v 2.500000 -2.467921 2.082970
v -2.500000 -2.476622 -2.083333
v -2.500000 -2.467921 2.082970
v 2.500000 2.030307 -2.498924
v 2.500000 2.382935 -2.474358
v -2.500000 2.382935 -2.474358
v -2.500000 2.030307 -2.498924
v -2.500000 -2.139520 2.491992
v -2.500000 -2.009310 2.420193
v -2.500000 -1.775690 2.094755
v -2.500000 -1.688463 1.972856
v -2.500000 -1.588919 1.836605
v -2.500000 -1.516737 1.733630
v -2.500000 -1.433020 1.600317
v -2.500000 -1.448035 1.502249
v -2.500000 -1.599139 1.355405
v -2.500000 -1.694380 1.261430
v -2.500000 -1.828881 1.118645
v -2.500000 -1.905702 1.017648
v -2.500000 -1.983745 0.886124
v -2.500000 -2.037138 0.777205
v -2.500000 -2.086467 0.650720
v -2.500000 -2.114380 0.536627
v -2.500000 -2.127160 0.415426
v -2.500000 -2.129422 0.298708
v -2.500000 -2.121914 0.177576
v -2.500000 -2.105322 0.061607
v -2.500000 -2.077581 -0.061245
v -2.500000 -2.041475 -0.174312
v -2.500000 -1.988276 -0.301036
v -2.500000 -1.928638 -0.405423
v -2.500000 -1.841731 -0.522607
v -2.500000 -1.756121 -0.620591
v -2.500000 -1.593032 -0.783710
v -2.500000 -1.486738 -0.875937
v -2.500000 -1.285658 -1.028190
v -2.500000 -1.168702 -1.113398
v -2.500000 -0.950011 -1.267045
v -2.500000 -0.811847 -1.354012
v -2.500000 -0.430543 -1.572226
v -2.500000 -0.271968 -1.652578
v -2.500000 0.105719 -1.819641
v -2.500000 0.267641 -1.880667
v -2.500000 0.642087 -1.998227
v -2.500000 0.838983 -2.058723
v -2.500000 1.546830 -2.273241
v -2.500000 1.769515 -2.332758
v 2.500000 -2.009310 2.420193
v 2.500000 -2.139520 2.491992
v 2.500000 -1.688463 1.972856
v 2.500000 -1.775690 2.094755
v 2.500000 -1.516737 1.733630
v 2.500000 -1.588919 1.836605
v 2.500000 -1.448035 1.502249
v 2.500000 -1.433020 1.600317
v 2.500000 -1.694380 1.261430
v 2.500000 -1.599139 1.355405
v 2.500000 -1.905702 1.017648
v 2.500000 -1.828881 1.118645
v 2.500000 -2.037138 0.777205
v 2.500000 -1.983745 0.886124
v 2.500000 -2.114380 0.536627
v 2.500000 -2.086467 0.650720
v 2.500000 -2.129422 0.298708
v 2.500000 -2.127160 0.415426
v 2.500000 -2.105322 0.061607
v 2.500000 -2.121914 0.177576
v 2.500000 -2.041475 -0.174312
v 2.500000 -2.077581 -0.061245
v 2.500000 -1.928638 -0.405423
v 2.500000 -1.988276 -0.301036
v 2.500000 -1.756121 -0.620591
v 2.500000 -1.841731 -0.522607
v 2.500000 -1.486738 -0.875937
v 2.500000 -1.593032 -0.783710
v 2.500000 -1.168702 -1.113398
v 2.500000 -1.285658 -1.028190
v 2.500000 -0.811847 -1.354012
v 2.500000 -0.950011 -1.267045
v 2.500000 -0.271968 -1.652578
v 2.500000 -0.430543 -1.572226
v 2.500000 0.267641 -1.880667
v 2.500000 0.105719 -1.819641
v 2.500000 0.838983 -2.058723
v 2.500000 0.642087 -1.998227
v 2.500000 1.769515 -2.332758
v 2.500000 1.546830 -2.273241
vn -0.0000 0.8124 0.5832
vn -0.0000 -1.0000 0.0021
vn -1.0000 -0.0000 -0.0000
vn -0.0000 0.2249 0.9744
vn -0.0000 -0.7798 0.6261
vn 1.0000 -0.0000 -0.0000
vn -0.0000 0.2900 0.9570
vn -0.0000 0.2995 0.9541
vn -0.0000 0.4045 0.9145
vn -0.0000 0.4967 0.8679
vn -0.0000 0.5749 0.8182
vn -0.0000 0.6037 0.7972
vn -0.0000 0.7072 0.7070
vn -0.0000 0.8032 0.5957
vn -0.0000 0.9220 0.3871
vn -0.0000 0.9754 0.2203
vn -0.0000 0.9981 0.0619
vn -0.0000 0.9945 -0.1049
vn -0.0000 0.9317 -0.3633
vn -0.0000 0.8600 -0.5103
vn -0.0000 0.7279 -0.6857
vn -0.0000 0.6969 -0.7171
vn -0.0000 0.8469 0.5318
vn -0.0000 0.8075 0.5899
vn -0.0000 0.0695 -0.9976
vn -0.0000 0.2582 0.9661
vn -0.0000 0.2937 0.9559
vn -0.0000 0.3527 0.9357
vn -0.0000 0.4520 0.8920
vn -0.0000 0.5327 0.8463
vn -0.0000 0.5888 0.8082
vn -0.0000 0.6554 0.7553
vn -0.0000 0.7531 0.6580
vn -0.0000 0.8683 0.4961
vn -0.0000 0.9526 0.3042
vn -0.0000 0.9899 0.1416
vn -0.0000 0.9998 -0.0194
vn -0.0000 0.9714 -0.2376
vn -0.0000 0.8979 -0.4402
vn -0.0000 0.7959 -0.6054
vn -0.0000 0.7024 -0.7118
vn -0.0000 0.9885 -0.1514
vn -0.0000 0.8189 0.5740
vn -0.0000 0.8132 0.5819
vn -0.0000 0.4829 0.8757
vn -0.0000 -0.0918 -0.9958
vt 0.375000 0.500000
vt 0.000000 0.000000
vt 0.375000 0.750000
vt 0.125000 0.500000
vt 0.375000 0.250000
vt 0.125000 0.750000
vt 0.375000 0.000000
vt 0.000000 0.000000
vt 0.000000 0.000000
vt 0.622101 0.500000
vt 0.624197 0.500803
vt 0.000000 0.000000
vt 0.624197 0.249197
vt 0.000000 0.000000
vt 0.000000 0.000000
vt 0.622101 0.250000
vt 0.385347 0.010347
vt 0.000000 0.000000
vt 0.388103 0.013103
vt 0.000000 0.000000
vt 0.397611 0.022611
vt 0.000000 0.000000
vt 0.401147 0.026147
vt 0.000000 0.000000
vt 0.408377 0.033377
vt 0.000000 0.000000
vt 0.413124 0.038124
vt 0.000000 0.000000
vt 0.420210 0.045210
vt 0.000000 0.000000
vt 0.424589 0.049589
vt 0.000000 0.000000
vt 0.432554 0.057554
vt 0.000000 0.000000
vt 0.436626 0.061626
vt 0.000000 0.000000
vt 0.444326 0.069326
vt 0.000000 0.000000
vt 0.448925 0.073925
vt 0.000000 0.000000
vt 0.455837 0.080837
vt 0.000000 0.000000
vt 0.461030 0.086030
vt 0.000000 0.000000
vt 0.467542 0.092542
vt 0.000000 0.000000
vt 0.473122 0.098122
vt 0.000000 0.000000
vt 0.479259 0.104259
vt 0.000000 0.000000
vt 0.485036 0.110036
vt 0.000000 0.000000
vt 0.491154 0.116154
vt 0.000000 0.000000
vt 0.496876 0.121876
vt 0.000000 0.000000
vt 0.503124 0.128124
vt 0.000000 0.000000
vt 0.508628 0.133628
vt 0.000000 0.000000
vt 0.515181 0.140181
vt 0.000000 0.000000
vt 0.520432 0.145432
vt 0.000000 0.000000
vt 0.527187 0.152187
vt 0.000000 0.000000
vt 0.531629 0.156629
vt 0.000000 0.000000
vt 0.539800 0.164800
vt 0.000000 0.000000
vt 0.543412 0.168412
vt 0.000000 0.000000
vt 0.551826 0.176826
vt 0.000000 0.000000
vt 0.555241 0.180241
vt 0.000000 0.000000
vt 0.563807 0.188807
vt 0.000000 0.000000
vt 0.566589 0.191589
vt 0.000000 0.000000
vt 0.576268 0.201268
vt 0.000000 0.000000
vt 0.578554 0.203554
vt 0.000000 0.000000
vt 0.588113 0.213113
vt 0.000000 0.000000
vt 0.590510 0.215510
vt 0.000000 0.000000
vt 0.599966 0.224966
vt 0.000000 0.000000
vt 0.601894 0.226895
vt 0.000000 0.000000
vt 0.612391 0.237391
vt 0.000000 0.000000
vt 0.613898 0.238898
vt 0.000000 0.000000
vt 0.388103 0.736897
vt 0.000000 0.000000
vt 0.385347 0.739653
vt 0.000000 0.000000
vt 0.401147 0.723853
vt 0.000000 0.000000
vt 0.397611 0.727389
vt 0.000000 0.000000
vt 0.413124 0.711876
vt 0.000000 0.000000
vt 0.408377 0.716623
vt 0.000000 0.000000
vt 0.424589 0.700411
vt 0.000000 0.000000
vt 0.420210 0.704790
vt 0.000000 0.000000
vt 0.436626 0.688374
vt 0.000000 0.000000
vt 0.432554 0.692446
vt 0.000000 0.000000
vt 0.448925 0.676075
vt 0.000000 0.000000
vt 0.444326 0.680674
vt 0.000000 0.000000
vt 0.461030 0.663970
vt 0.000000 0.000000
vt 0.455837 0.669163
vt 0.000000 0.000000
vt 0.473122 0.651878
vt 0.000000 0.000000
vt 0.467542 0.657458
vt 0.000000 0.000000
vt 0.485036 0.639964
vt 0.000000 0.000000
vt 0.479259 0.645741
vt 0.000000 0.000000
vt 0.496876 0.628124
vt 0.000000 0.000000
vt 0.491154 0.633846
vt 0.000000 0.000000
vt 0.508628 0.616372
vt 0.000000 0.000000
vt 0.503124 0.621876
vt 0.000000 0.000000
vt 0.520432 0.604568
vt 0.000000 0.000000
vt 0.515181 0.609819
vt 0.000000 0.000000
vt 0.531629 0.593371
vt 0.000000 0.000000
vt 0.527187 0.597813
vt 0.000000 0.000000
vt 0.543412 0.581588
vt 0.000000 0.000000
vt 0.539800 0.585201
vt 0.000000 0.000000
vt 0.555241 0.569760
vt 0.000000 0.000000
vt 0.551826 0.573174
vt 0.000000 0.000000
vt 0.566589 0.558411
vt 0.000000 0.000000
vt 0.563807 0.561193
vt 0.000000 0.000000
vt 0.578554 0.546446
vt 0.000000 0.000000
vt 0.576268 0.548732
vt 0.000000 0.000000
vt 0.590510 0.534490
vt 0.000000 0.000000
vt 0.588113 0.536887
vt 0.000000 0.000000
vt 0.601894 0.523106
vt 0.000000 0.000000
vt 0.599966 0.525034
vt 0.000000 0.000000
vt 0.613898 0.511102
vt 0.000000 0.000000
vt 0.612391 0.512609
vt 0.000000 0.000000
s 0
usemtl Material
f 52/104/1 11/22/1 10/20/1 49/98/1
f 3/4/2 1/1/2 2/3/2 4/6/2
f 7/13/3 8/16/3 3/5/3 4/7/3 9/17/3 10/19/3 11/21/3 12/23/3 13/25/3 14/27/3 15/29/3 16/31/3 17/33/3 18/35/3 19/37/3 20/39/3 21/41/3 22/43/3 23/45/3 24/47/3 25/49/3 26/51/3 27/53/3 28/55/3 29/57/3 30/59/3 31/61/3 32/63/3 33/65/3 34/67/3 35/69/3 36/71/3 37/73/3 38/75/3 39/77/3 40/79/3 41/81/3 42/83/3 43/85/3 44/87/3 45/89/3 46/91/3 47/93/3 48/95/3
f 6/12/4 7/14/4 48/96/4 87/174/4
f 50/100/5 9/18/5 4/8/5 2/2/5
f 1/1/6 5/10/6 6/11/6 87/173/6 88/175/6 85/169/6 86/171/6 83/165/6 84/167/6 81/161/6 82/163/6 79/157/6 80/159/6 77/153/6 78/155/6 75/149/6 76/151/6 73/145/6 74/147/6 71/141/6 72/143/6 69/137/6 70/139/6 67/133/6 68/135/6 65/129/6 66/131/6 63/125/6 64/127/6 61/121/6 62/123/6 59/117/6 60/119/6 57/113/6 58/115/6 55/109/6 56/111/6 53/105/6 54/107/6 51/101/6 52/103/6 49/97/6 50/99/6 2/3/6
f 88/176/7 47/94/7 46/92/7 85/170/7
f 86/172/8 45/90/8 44/88/8 83/166/8
f 84/168/9 43/86/9 42/84/9 81/162/9
f 82/164/10 41/82/10 40/80/10 79/158/10
f 80/160/11 39/78/11 38/76/11 77/154/11
f 78/156/12 37/74/12 36/72/12 75/150/12
f 76/152/13 35/70/13 34/68/13 73/146/13
f 74/148/14 33/66/14 32/64/14 71/142/14
f 72/144/15 31/62/15 30/60/15 69/138/15
f 70/140/16 29/58/16 28/56/16 67/134/16
f 68/136/17 27/54/17 26/52/17 65/130/17
f 66/132/18 25/50/18 24/48/18 63/126/18
f 64/128/19 23/46/19 22/44/19 61/122/19
f 62/124/20 21/42/20 20/40/20 59/118/20
f 60/120/21 19/38/21 18/36/21 57/114/21
f 58/116/22 17/34/22 16/32/22 55/110/22
f 56/112/23 15/30/23 14/28/23 53/106/23
f 54/108/24 13/26/24 12/24/24 51/102/24
f 7/14/25 6/12/25 5/9/25 8/15/25
f 47/94/26 88/176/26 87/174/26 48/96/26
f 45/90/27 86/172/27 85/170/27 46/92/27
f 43/86/28 84/168/28 83/166/28 44/88/28
f 41/82/29 82/164/29 81/162/29 42/84/29
f 39/78/30 80/160/30 79/158/30 40/80/30
f 37/74/31 78/156/31 77/154/31 38/76/31
f 35/70/32 76/152/32 75/150/32 36/72/32
f 33/66/33 74/148/33 73/146/33 34/68/33
f 31/62/34 72/144/34 71/142/34 32/64/34
f 29/58/35 70/140/35 69/138/35 30/60/35
f 27/54/36 68/136/36 67/134/36 28/56/36
f 25/50/37 66/132/37 65/130/37 26/52/37
f 23/46/38 64/128/38 63/126/38 24/48/38
f 21/42/39 62/124/39 61/122/39 22/44/39
f 19/38/40 60/120/40 59/118/40 20/40/40
f 17/34/41 58/116/41 57/114/41 18/36/41
f 15/30/42 56/112/42 55/110/42 16/32/42
f 13/26/43 54/108/43 53/106/43 14/28/43
f 11/22/44 52/104/44 51/102/44 12/24/44
f 9/18/45 50/100/45 49/98/45 10/20/45
f 3/5/46 8/16/46 5/10/46 1/1/46
